<?xml version="1.0" ?><svg style="enable-background:new 0 0 512 512;" version="1.1" viewBox="0 0 512 512" xml:space="preserve" xmlns="http://www.w3.org/2000/svg" xmlns:xlink="http://www.w3.org/1999/xlink"><g id="_x33_1_x5F_Mindset"><g id="XMLID_844_"><g id="XMLID_862_"><g id="XMLID_947_"><linearGradient gradientTransform="matrix(0.7314 -0.682 0.682 0.7314 -105.8181 243.365)" gradientUnits="userSpaceOnUse" id="XMLID_2_" x1="-18.9652" x2="477.5495" y1="252.9164" y2="252.9164"><stop offset="0" style="stop-color:#DCAE99"/><stop offset="1" style="stop-color:#FFF0DB"/></linearGradient><path d="M165.759,119.6c-25.86,22-42.26,54.78-42.26,91.4      c0,59.84,43.81,109.46,101.11,118.52c6.15,0.97,12.46,1.48,18.89,1.48c26.52,0,51.03-8.6,70.89-23.17v-0.01      c29.78-21.83,49.11-57.07,49.11-96.82c0-49.05-29.44-91.24-71.61-109.84c-14.8-6.53-31.17-10.16-48.39-10.16      C213.839,91,186.699,101.76,165.759,119.6z M448.499,251l20,60l-30,10l-10,90h-80l-10,90h-230l11.83-47.21      c9.72-38.82,0.09-80.18-26.47-110.11c-31.88-35.92-51.02-83.39-50.34-135.35C44.949,98.6,133.769,11,243.499,11      c110.46,0,200,89.54,200,200L448.499,251z" id="XMLID_951_" style="fill:url(#XMLID_2_);"/><linearGradient gradientTransform="matrix(0.7314 -0.682 0.682 0.7314 -53.8699 272.2232)" gradientUnits="userSpaceOnUse" id="XMLID_3_" x1="245.0504" x2="379.2341" y1="194.3406" y2="194.3406"><stop offset="0" style="stop-color:#8ADC3F"/><stop offset="1" style="stop-color:#CCFF81"/></linearGradient><path d="M291.889,101.16c42.17,18.6,71.61,60.79,71.61,109.84      c0,39.75-19.33,74.99-49.11,96.82c-4.43-15.86-7.83-36.42-1.37-50.19c11.84-25.27,7.89-41.06-27.63-90.05      C262.479,135.98,277.989,113.28,291.889,101.16z" id="XMLID_950_" style="fill:url(#XMLID_3_);"/><linearGradient gradientTransform="matrix(0.7314 -0.682 0.682 0.7314 -78.7849 221.9928)" gradientUnits="userSpaceOnUse" id="XMLID_4_" x1="148.5547" x2="353.5013" y1="211.4071" y2="211.4071"><stop offset="0" style="stop-color:#7BA8D9"/><stop offset="1" style="stop-color:#BDEAFF"/></linearGradient><path d="M314.389,307.82v0.01c-19.86,14.57-44.37,23.17-70.89,23.17      c-6.43,0-12.74-0.51-18.89-1.48c1.48-2.72,3.06-5.63,4.73-8.74c28.42-52.89-30.79-72.63-14.22-115.84      c10.78-28.1-23.82-63.8-49.36-85.34c20.94-17.84,48.08-28.6,77.74-28.6c17.22,0,33.59,3.63,48.39,10.16      c-13.9,12.12-29.41,34.82-6.5,66.42c35.52,48.99,39.47,64.78,27.63,90.05C306.559,271.4,309.959,291.96,314.389,307.82z" id="XMLID_949_" style="fill:url(#XMLID_4_);"/><linearGradient gradientTransform="matrix(0.7314 -0.682 0.682 0.7314 -104.7017 183.3193)" gradientUnits="userSpaceOnUse" id="XMLID_5_" x1="115.7811" x2="243.3561" y1="234.6204" y2="234.6204"><stop offset="0" style="stop-color:#8ADC3F"/><stop offset="1" style="stop-color:#CCFF81"/></linearGradient><path d="M215.119,204.94c-16.57,43.21,42.64,62.95,14.22,115.84      c-1.67,3.11-3.25,6.02-4.73,8.74c-57.3-9.06-101.11-58.68-101.11-118.52c0-36.62,16.4-69.4,42.26-91.4      C191.299,141.14,225.899,176.84,215.119,204.94z" id="XMLID_948_" style="fill:url(#XMLID_5_);"/></g><g id="XMLID_942_"><g id="XMLID_946_"><path d="M338.499,511h-230c-3.081,0-5.989-1.42-7.884-3.848c-1.895-2.429-2.565-5.595-1.816-8.583l11.83-47.21       c9.014-36-0.051-73.773-24.249-101.042c-34.773-39.181-53.546-89.652-52.86-142.118c0.726-55.712,22.87-107.847,62.354-146.802       C135.35,22.45,187.778,1,243.499,1c115.583,0,209.656,93.867,210,209.37l4.801,38.407l19.688,59.061       c1.746,5.239-1.086,10.902-6.325,12.649l-23.93,7.977l-9.294,83.641c-0.563,5.064-4.843,8.896-9.938,8.896h-71.05       l-9.012,81.104C347.875,507.169,343.595,511,338.499,511z M121.313,491h208.235l9.012-81.104       c0.563-5.064,4.843-8.896,9.938-8.896h71.05l9.012-81.104c0.431-3.877,3.076-7.148,6.776-8.383l20.513-6.837l-16.838-50.514       c-0.208-0.625-0.354-1.269-0.436-1.922l-5-40c-0.052-0.411-0.077-0.826-0.077-1.24c0-104.766-85.233-190-190-190       C140.09,21,54.865,105.094,53.518,208.46c-0.621,47.472,16.362,93.136,47.82,128.582       c28.585,32.213,39.311,76.765,28.691,119.177L121.313,491z" id="XMLID_473_"/></g><g id="XMLID_945_"><path d="M243.499,341c-6.831,0-13.711-0.539-20.449-1.603c-30.245-4.782-57.965-20.254-78.059-43.566       c-20.308-23.563-31.493-53.689-31.493-84.831c0-38.175,16.687-74.265,45.78-99.017C182.729,92.005,212.64,81,243.499,81       c18.229,0,35.868,3.705,52.427,11.011c47.123,20.785,77.573,67.491,77.573,118.989c0,41.122-19.754,80.207-52.867,104.642       c-0.107,0.086-0.217,0.17-0.328,0.251C297.915,332.318,271.356,341,243.499,341z M243.499,101       c-26.109,0-51.415,9.309-71.254,26.212c-24.625,20.95-38.746,51.488-38.746,83.788c0,54.462,38.974,100.152,92.672,108.643       c5.708,0.9,11.538,1.357,17.328,1.357c23.447,0,45.799-7.264,64.669-21.01c0.101-0.08,0.204-0.158,0.309-0.235       c28.191-20.665,45.022-53.845,45.022-88.755c0-43.578-25.768-83.102-65.646-100.69C273.853,104.132,258.93,101,243.499,101z" id="XMLID_470_"/></g><g id="XMLID_944_"><path d="M314.389,317.825c-4.702,0-8.646-3.242-9.715-7.614c-6.751-24.32-6.989-43.439-0.709-56.828       c9.097-19.415,9.09-30.61-26.672-79.933c-20.561-28.359-17.636-57.455,8.024-79.828c4.16-3.628,10.477-3.198,14.108,0.966       c3.63,4.163,3.197,10.479-0.966,14.109c-17.896,15.604-19.524,32.945-4.976,53.013c34.421,47.472,43.376,68.602,28.59,100.163       c-4.098,8.734-3.406,24.096,1.946,43.257c0.244,0.876,0.368,1.781,0.368,2.69C324.389,313.343,319.911,317.825,314.389,317.825       z" id="XMLID_469_"/></g><g id="XMLID_943_"><path d="M224.6,339.521c-1.615,0-3.252-0.392-4.771-1.218c-4.851-2.641-6.644-8.713-4.004-13.564       c1.472-2.704,3.043-5.599,4.704-8.69c12.887-23.982,4.569-39.028-5.062-56.449c-8.861-16.03-18.905-34.198-9.686-58.24       c6.433-16.769-10.505-43.782-46.47-74.115c-0.216-0.183-0.424-0.374-0.624-0.573c-3.905-3.905-3.91-10.242-0.005-14.147       c3.746-3.747,9.723-3.904,13.65-0.461c30.744,25.954,64.682,63.721,52.123,96.459c-5.886,15.349,0.47,26.846,8.516,41.402       c10.346,18.715,23.222,42.007,5.177,75.59c-1.678,3.125-3.267,6.051-4.755,8.786       C231.579,337.632,228.145,339.521,224.6,339.521z" id="XMLID_468_"/></g></g></g></g></g><g id="Layer_1"/></svg>